<svg width="152" height="34" viewBox="0 0 152 34" fill="none" xmlns="http://www.w3.org/2000/svg">
<path d="M1.85 23.9524V3.40239H6.7L6.8 7.85239H6.9C6.93333 7.71906 7.05 7.43573 7.25 7.00239C7.48333 6.53573 7.83333 6.03573 8.3 5.50239C8.8 4.93573 9.43333 4.45239 10.2 4.05239C10.9667 3.61906 11.9167 3.40239 13.05 3.40239C14.15 3.40239 15.0667 3.61906 15.8 4.05239C16.5333 4.48572 17.1167 5.03573 17.55 5.70239C18.0167 6.36906 18.35 7.08572 18.55 7.85239H18.65C18.6833 7.71906 18.8333 7.41906 19.1 6.95239C19.3667 6.48573 19.75 5.98573 20.25 5.45239C20.75 4.88573 21.4 4.40239 22.2 4.00239C23.0333 3.60239 24.0333 3.40239 25.2 3.40239C26.5 3.40239 27.5667 3.68573 28.4 4.25239C29.2667 4.78572 29.95 5.48572 30.45 6.35239C30.95 7.18572 31.3167 8.08573 31.55 9.05239C31.8167 10.0191 31.9833 10.9524 32.05 11.8524C32.1167 12.7191 32.15 13.4357 32.15 14.0024V23.9524H27.2V13.9524C27.2 13.4191 27.1667 12.8191 27.1 12.1524C27.0667 11.4524 26.9333 10.7857 26.7 10.1524C26.5 9.48573 26.15 8.95239 25.65 8.55239C25.15 8.11906 24.45 7.90239 23.55 7.90239C22.45 7.90239 21.6 8.21906 21 8.85239C20.4333 9.45239 20.0333 10.2357 19.8 11.2024C19.6 12.1357 19.5 13.1191 19.5 14.1524V23.9524H14.5V13.9524C14.5 13.4191 14.4833 12.8191 14.45 12.1524C14.4167 11.4524 14.2833 10.7857 14.05 10.1524C13.8167 9.48573 13.45 8.95239 12.95 8.55239C12.45 8.11906 11.75 7.90239 10.85 7.90239C9.78333 7.90239 8.95 8.21906 8.35 8.85239C7.75 9.45239 7.33333 10.2357 7.1 11.2024C6.9 12.1357 6.8 13.1191 6.8 14.1524V23.9524H1.85ZM71.3383 24.4524C70.0716 24.4524 69.0049 24.2691 68.1383 23.9024C67.3049 23.5024 66.6216 23.0357 66.0883 22.5024C65.5883 21.9691 65.2049 21.4857 64.9383 21.0524C64.7049 20.6191 64.5716 20.3691 64.5383 20.3024H64.4383V33.1024H59.1883V3.40239H63.6383L64.4883 7.90239H64.5883C64.6216 7.80239 64.7383 7.51906 64.9383 7.05239C65.1383 6.58572 65.4883 6.06906 65.9883 5.50239C66.4883 4.93573 67.1716 4.45239 68.0383 4.05239C68.9049 3.61906 69.9883 3.40239 71.2883 3.40239C73.3549 3.40239 75.0049 3.85239 76.2383 4.75239C77.5049 5.65239 78.4216 6.90239 78.9883 8.50239C79.5883 10.1024 79.8883 11.9524 79.8883 14.0524C79.8883 16.1857 79.5883 18.0357 78.9883 19.6024C78.3883 21.1357 77.4549 22.3357 76.1883 23.2024C74.9549 24.0357 73.3383 24.4524 71.3383 24.4524ZM69.7883 20.1524C71.1883 20.1524 72.2549 19.8691 72.9883 19.3024C73.7549 18.7024 74.2716 17.9357 74.5383 17.0024C74.8383 16.0357 74.9883 15.0357 74.9883 14.0024C74.9883 12.9691 74.8383 11.9857 74.5383 11.0524C74.2383 10.1191 73.6883 9.36906 72.8883 8.80239C72.1216 8.23573 71.0549 7.95239 69.6883 7.95239C68.4549 7.95239 67.4549 8.21906 66.6883 8.75239C65.9216 9.25239 65.3549 9.96906 64.9883 10.9024C64.6549 11.8024 64.4883 12.8357 64.4883 14.0024C64.4883 15.2024 64.6716 16.2691 65.0383 17.2024C65.4049 18.1024 65.9716 18.8191 66.7383 19.3524C67.5383 19.8857 68.5549 20.1524 69.7883 20.1524Z" fill="#DC0000"/>
<path d="M42.982 24.4524C41.1154 24.4524 39.5987 24.0191 38.432 23.1524C37.2654 22.2524 36.4154 21.0191 35.882 19.4524C35.382 17.8524 35.132 16.0191 35.132 13.9524C35.132 11.8524 35.3987 10.0024 35.932 8.40239C36.4654 6.80239 37.2987 5.56906 38.432 4.70239C39.5987 3.80239 41.1154 3.35239 42.982 3.35239C44.182 3.35239 45.182 3.51906 45.982 3.85239C46.8154 4.18573 47.482 4.58572 47.982 5.05239C48.5154 5.51906 48.9154 5.98572 49.182 6.45239C49.4487 6.88573 49.632 7.23573 49.732 7.50239H49.832V3.40239H55.082V23.9524H50.682L49.832 20.6024H49.732C49.6654 20.8357 49.482 21.1691 49.182 21.6024C48.882 22.0024 48.4654 22.4357 47.932 22.9024C47.432 23.3357 46.7654 23.7024 45.932 24.0024C45.132 24.3024 44.1487 24.4524 42.982 24.4524ZM45.082 20.1524C46.3154 20.1524 47.282 19.8857 47.982 19.3524C48.682 18.8191 49.1654 18.0857 49.432 17.1524C49.6987 16.1857 49.832 15.1357 49.832 14.0024C49.832 12.7691 49.682 11.7024 49.382 10.8024C49.1154 9.86906 48.632 9.15239 47.932 8.65239C47.2654 8.11906 46.3154 7.85239 45.082 7.85239C43.782 7.85239 42.7654 8.13572 42.032 8.70239C41.332 9.26906 40.832 10.0191 40.532 10.9524C40.2654 11.8524 40.132 12.8691 40.132 14.0024C40.132 15.1357 40.2654 16.1691 40.532 17.1024C40.832 18.0357 41.332 18.7857 42.032 19.3524C42.7654 19.8857 43.782 20.1524 45.082 20.1524Z" fill="white"/>
<path d="M86.1477 23.9524C84.9477 23.9524 84.131 23.6524 83.6977 23.0524C83.2977 22.4524 83.0977 21.7191 83.0977 20.8524C83.0977 20.0524 83.2977 19.3524 83.6977 18.7524C84.131 18.1524 84.9477 17.8524 86.1477 17.8524C87.281 17.8524 88.0477 18.1524 88.4477 18.7524C88.881 19.3524 89.0977 20.0524 89.0977 20.8524C89.0977 21.7191 88.881 22.4524 88.4477 23.0524C88.0477 23.6524 87.281 23.9524 86.1477 23.9524ZM93.6957 23.9524V3.40239H98.5457L98.6457 7.85239H98.7457C98.779 7.71906 98.8957 7.43573 99.0957 7.00239C99.329 6.53573 99.679 6.03573 100.146 5.50239C100.646 4.93573 101.279 4.45239 102.046 4.05239C102.812 3.61906 103.762 3.40239 104.896 3.40239C105.996 3.40239 106.912 3.61906 107.646 4.05239C108.379 4.48572 108.962 5.03573 109.396 5.70239C109.862 6.36906 110.196 7.08572 110.396 7.85239H110.496C110.529 7.71906 110.679 7.41906 110.946 6.95239C111.212 6.48573 111.596 5.98573 112.096 5.45239C112.596 4.88573 113.246 4.40239 114.046 4.00239C114.879 3.60239 115.879 3.40239 117.046 3.40239C118.346 3.40239 119.412 3.68573 120.246 4.25239C121.112 4.78572 121.796 5.48572 122.296 6.35239C122.796 7.18572 123.162 8.08573 123.396 9.05239C123.662 10.0191 123.829 10.9524 123.896 11.8524C123.962 12.7191 123.996 13.4357 123.996 14.0024V23.9524H119.046V13.9524C119.046 13.4191 119.012 12.8191 118.946 12.1524C118.912 11.4524 118.779 10.7857 118.546 10.1524C118.346 9.48573 117.996 8.95239 117.496 8.55239C116.996 8.11906 116.296 7.90239 115.396 7.90239C114.296 7.90239 113.446 8.21906 112.846 8.85239C112.279 9.45239 111.879 10.2357 111.646 11.2024C111.446 12.1357 111.346 13.1191 111.346 14.1524V23.9524H106.346V13.9524C106.346 13.4191 106.329 12.8191 106.296 12.1524C106.262 11.4524 106.129 10.7857 105.896 10.1524C105.662 9.48573 105.296 8.95239 104.796 8.55239C104.296 8.11906 103.596 7.90239 102.696 7.90239C101.629 7.90239 100.796 8.21906 100.196 8.85239C99.5957 9.45239 99.179 10.2357 98.9457 11.2024C98.7457 12.1357 98.6457 13.1191 98.6457 14.1524V23.9524H93.6957ZM137.378 24.4524C135.011 24.4524 133.078 23.9524 131.578 22.9524C130.111 21.9191 129.011 20.6024 128.278 19.0024C127.578 17.4024 127.211 15.7357 127.178 14.0024C127.144 11.9357 127.528 10.1024 128.328 8.50239C129.161 6.86906 130.328 5.60239 131.828 4.70239C133.361 3.76906 135.161 3.30239 137.228 3.30239C139.061 3.30239 140.711 3.70239 142.178 4.50239C143.644 5.30239 144.794 6.41906 145.628 7.85239C146.494 9.28572 146.944 11.0024 146.978 13.0024C146.978 13.0691 146.978 13.2691 146.978 13.6024C146.978 13.9024 146.978 14.1357 146.978 14.3024H132.028C132.028 16.2024 132.494 17.6691 133.428 18.7024C134.394 19.7024 135.678 20.2024 137.278 20.2024C138.544 20.2024 139.594 19.8857 140.428 19.2524C141.294 18.6191 141.811 17.7857 141.978 16.7524H146.928C146.794 18.1857 146.328 19.4857 145.528 20.6524C144.728 21.8191 143.644 22.7524 142.278 23.4524C140.911 24.1191 139.278 24.4524 137.378 24.4524ZM132.178 12.0024H141.878C141.844 11.7691 141.778 11.4024 141.678 10.9024C141.578 10.4024 141.361 9.88572 141.028 9.35239C140.694 8.81906 140.211 8.36906 139.578 8.00239C138.944 7.63573 138.128 7.45239 137.128 7.45239C136.128 7.45239 135.311 7.61906 134.678 7.95239C134.044 8.28573 133.561 8.70239 133.228 9.20239C132.894 9.70239 132.644 10.2024 132.478 10.7024C132.311 11.2024 132.211 11.6357 132.178 12.0024Z" fill="black"/>
<mask id="path-2-outside-1_60_153" maskUnits="userSpaceOnUse" x="34" y="1.95239" width="22" height="24" fill="black">
<rect fill="white" x="34" y="1.95239" width="22" height="24"/>
<path d="M42.9 24.4524C41.0333 24.4524 39.5167 24.0191 38.35 23.1524C37.1833 22.2524 36.3333 21.0191 35.8 19.4524C35.3 17.8524 35.05 16.0191 35.05 13.9524C35.05 11.8524 35.3167 10.0024 35.85 8.40239C36.3833 6.80239 37.2167 5.56906 38.35 4.70239C39.5167 3.80239 41.0333 3.35239 42.9 3.35239C44.1 3.35239 45.1 3.51906 45.9 3.85239C46.7333 4.18573 47.4 4.58572 47.9 5.05239C48.4333 5.51906 48.8333 5.98572 49.1 6.45239C49.3667 6.88573 49.55 7.23573 49.65 7.50239H49.75V3.40239H55V23.9524H50.6L49.75 20.6024H49.65C49.5833 20.8357 49.4 21.1691 49.1 21.6024C48.8 22.0024 48.3833 22.4357 47.85 22.9024C47.35 23.3357 46.6833 23.7024 45.85 24.0024C45.05 24.3024 44.0667 24.4524 42.9 24.4524ZM45 20.1524C46.2333 20.1524 47.2 19.8857 47.9 19.3524C48.6 18.8191 49.0833 18.0857 49.35 17.1524C49.6167 16.1857 49.75 15.1357 49.75 14.0024C49.75 12.7691 49.6 11.7024 49.3 10.8024C49.0333 9.86906 48.55 9.15239 47.85 8.65239C47.1833 8.11906 46.2333 7.85239 45 7.85239C43.7 7.85239 42.6833 8.13572 41.95 8.70239C41.25 9.26906 40.75 10.0191 40.45 10.9524C40.1833 11.8524 40.05 12.8691 40.05 14.0024C40.05 15.1357 40.1833 16.1691 40.45 17.1024C40.75 18.0357 41.25 18.7857 41.95 19.3524C42.6833 19.8857 43.7 20.1524 45 20.1524Z"/>
</mask>
<path d="M42.9 24.4524C41.0333 24.4524 39.5167 24.0191 38.35 23.1524C37.1833 22.2524 36.3333 21.0191 35.8 19.4524C35.3 17.8524 35.05 16.0191 35.05 13.9524C35.05 11.8524 35.3167 10.0024 35.85 8.40239C36.3833 6.80239 37.2167 5.56906 38.35 4.70239C39.5167 3.80239 41.0333 3.35239 42.9 3.35239C44.1 3.35239 45.1 3.51906 45.9 3.85239C46.7333 4.18573 47.4 4.58572 47.9 5.05239C48.4333 5.51906 48.8333 5.98572 49.1 6.45239C49.3667 6.88573 49.55 7.23573 49.65 7.50239H49.75V3.40239H55V23.9524H50.6L49.75 20.6024H49.65C49.5833 20.8357 49.4 21.1691 49.1 21.6024C48.8 22.0024 48.3833 22.4357 47.85 22.9024C47.35 23.3357 46.6833 23.7024 45.85 24.0024C45.05 24.3024 44.0667 24.4524 42.9 24.4524ZM45 20.1524C46.2333 20.1524 47.2 19.8857 47.9 19.3524C48.6 18.8191 49.0833 18.0857 49.35 17.1524C49.6167 16.1857 49.75 15.1357 49.75 14.0024C49.75 12.7691 49.6 11.7024 49.3 10.8024C49.0333 9.86906 48.55 9.15239 47.85 8.65239C47.1833 8.11906 46.2333 7.85239 45 7.85239C43.7 7.85239 42.6833 8.13572 41.95 8.70239C41.25 9.26906 40.75 10.0191 40.45 10.9524C40.1833 11.8524 40.05 12.8691 40.05 14.0024C40.05 15.1357 40.1833 16.1691 40.45 17.1024C40.75 18.0357 41.25 18.7857 41.95 19.3524C42.6833 19.8857 43.7 20.1524 45 20.1524Z" fill="white"/>
<path d="M38.35 23.1524L37.7392 23.9442L37.7464 23.9497L37.7537 23.9551L38.35 23.1524ZM35.8 19.4524L34.8455 19.7507L34.8493 19.7627L34.8534 19.7747L35.8 19.4524ZM35.85 8.40239L34.9013 8.08616L34.9013 8.08616L35.85 8.40239ZM38.35 4.70239L38.9575 5.49676L38.9608 5.49417L38.35 4.70239ZM45.9 3.85239L45.5154 4.77547L45.522 4.77822L45.5286 4.78087L45.9 3.85239ZM47.9 5.05239L47.2177 5.78345L47.2294 5.7944L47.2415 5.80497L47.9 5.05239ZM49.1 6.45239L48.2318 6.94853L48.2398 6.96264L48.2483 6.97649L49.1 6.45239ZM49.65 7.50239L48.7137 7.85352L48.957 8.50239H49.65V7.50239ZM49.75 7.50239V8.50239H50.75V7.50239H49.75ZM49.75 3.40239V2.40239H48.75V3.40239H49.75ZM55 3.40239H56V2.40239H55V3.40239ZM55 23.9524V24.9524H56V23.9524H55ZM50.6 23.9524L49.6307 24.1983L49.822 24.9524H50.6V23.9524ZM49.75 20.6024L50.7193 20.3565L50.528 19.6024H49.75V20.6024ZM49.65 20.6024V19.6024H48.8957L48.6885 20.3277L49.65 20.6024ZM49.1 21.6024L49.9 22.2024L49.9114 22.1872L49.9222 22.1716L49.1 21.6024ZM47.85 22.9024L48.5049 23.6581L48.5085 23.655L47.85 22.9024ZM45.85 24.0024L45.5113 23.0614L45.4989 23.0661L45.85 24.0024ZM47.9 19.3524L48.506 20.1478L48.506 20.1478L47.9 19.3524ZM49.35 17.1524L50.3116 17.4271L50.314 17.4183L49.35 17.1524ZM49.3 10.8024L48.3385 11.0771L48.3444 11.098L48.3513 11.1186L49.3 10.8024ZM47.85 8.65239L47.2253 9.43326L47.2466 9.45028L47.2688 9.46612L47.85 8.65239ZM41.95 8.70239L41.3386 7.91111L41.3296 7.91803L41.3208 7.92515L41.95 8.70239ZM40.45 10.9524L39.498 10.6464L39.4945 10.6573L39.4912 10.6683L40.45 10.9524ZM40.45 17.1024L39.4885 17.3771L39.493 17.3928L39.498 17.4084L40.45 17.1024ZM41.95 19.3524L41.3208 20.1296L41.3409 20.1459L41.3618 20.1611L41.95 19.3524ZM42.9 23.4524C41.1868 23.4524 39.8971 23.0559 38.9463 22.3496L37.7537 23.9551C39.1363 24.9822 40.8799 25.4524 42.9 25.4524V23.4524ZM38.9608 22.3606C37.9685 21.5951 37.2247 20.5344 36.7467 19.1301L34.8534 19.7747C35.442 21.5037 36.3981 22.9096 37.7392 23.9442L38.9608 22.3606ZM36.7545 19.1541C36.2907 17.6701 36.05 15.9405 36.05 13.9524H34.05C34.05 16.0976 34.3093 18.0347 34.8455 19.7507L36.7545 19.1541ZM36.05 13.9524C36.05 11.9346 36.3065 10.1952 36.7987 8.71862L34.9013 8.08616C34.3268 9.80959 34.05 11.7701 34.05 13.9524H36.05ZM36.7987 8.71862C37.2805 7.27323 38.0104 6.22098 38.9575 5.49675L37.7426 3.90803C36.423 4.91714 35.4862 6.33156 34.9013 8.08616L36.7987 8.71862ZM38.9608 5.49417C39.9104 4.76164 41.1945 4.35239 42.9 4.35239V2.35239C40.8721 2.35239 39.123 2.84314 37.7392 3.91061L38.9608 5.49417ZM42.9 4.35239C44.0153 4.35239 44.8745 4.50842 45.5154 4.77547L46.2846 2.92932C45.3255 2.5297 44.1847 2.35239 42.9 2.35239V4.35239ZM45.5286 4.78087C46.281 5.08182 46.8316 5.4231 47.2177 5.78345L48.5823 4.32134C47.9684 3.74835 47.1857 3.28963 46.2714 2.92392L45.5286 4.78087ZM47.2415 5.80497C47.7162 6.22036 48.0347 6.60363 48.2318 6.94853L49.9682 5.95625C49.632 5.36782 49.1504 4.81776 48.5585 4.29982L47.2415 5.80497ZM48.2483 6.97649C48.5032 7.39056 48.6473 7.6765 48.7137 7.85352L50.5863 7.15127C50.4527 6.79495 50.2302 6.38089 49.9517 5.92829L48.2483 6.97649ZM49.65 8.50239H49.75V6.50239H49.65V8.50239ZM50.75 7.50239V3.40239H48.75V7.50239H50.75ZM49.75 4.40239H55V2.40239H49.75V4.40239ZM54 3.40239V23.9524H56V3.40239H54ZM55 22.9524H50.6V24.9524H55V22.9524ZM51.5693 23.7065L50.7193 20.3565L48.7807 20.8483L49.6307 24.1983L51.5693 23.7065ZM49.75 19.6024H49.65V21.6024H49.75V19.6024ZM48.6885 20.3277C48.6703 20.3914 48.5711 20.6096 48.2778 21.0332L49.9222 22.1716C50.2289 21.7285 50.4964 21.2801 50.6115 20.8771L48.6885 20.3277ZM48.3 21.0024C48.055 21.3291 47.6923 21.7116 47.1915 22.1498L48.5085 23.655C49.0744 23.1598 49.545 22.6757 49.9 22.2024L48.3 21.0024ZM47.1951 22.1467C46.8138 22.4771 46.2656 22.7899 45.5113 23.0615L46.1887 24.9433C47.101 24.6148 47.8862 24.1943 48.5049 23.6581L47.1951 22.1467ZM45.4989 23.0661C44.8439 23.3117 43.9876 23.4524 42.9 23.4524V25.4524C44.1457 25.4524 45.2561 25.2931 46.2011 24.9387L45.4989 23.0661ZM45 21.1524C46.3664 21.1524 47.5741 20.8579 48.506 20.1478L47.294 18.557C46.8259 18.9136 46.1003 19.1524 45 19.1524V21.1524ZM48.506 20.1478C49.3953 19.4703 49.992 18.5453 50.3115 17.4271L48.3885 16.8777C48.1746 17.6262 47.8047 18.1678 47.294 18.557L48.506 20.1478ZM50.314 17.4183C50.6074 16.3546 50.75 15.2141 50.75 14.0024H48.75C48.75 15.0573 48.6259 16.0168 48.386 16.8865L50.314 17.4183ZM50.75 14.0024C50.75 12.692 50.5911 11.5135 50.2487 10.4862L48.3513 11.1186C48.6089 11.8913 48.75 12.8461 48.75 14.0024H50.75ZM50.2615 10.5277C49.9411 9.4063 49.3388 8.48692 48.4312 7.83866L47.2688 9.46612C47.7612 9.81786 48.1255 10.3318 48.3385 11.0771L50.2615 10.5277ZM48.4747 7.87152C47.5668 7.14525 46.3623 6.85239 45 6.85239V8.85239C46.1044 8.85239 46.7998 9.09287 47.2253 9.43326L48.4747 7.87152ZM45 6.85239C43.5659 6.85239 42.3053 7.16404 41.3386 7.91111L42.5614 9.49368C43.0613 9.10741 43.8341 8.85239 45 8.85239V6.85239ZM41.3208 7.92515C40.4563 8.62499 39.852 9.54501 39.498 10.6464L41.402 11.2584C41.648 10.4931 42.0437 9.91313 42.5792 9.47964L41.3208 7.92515ZM39.4912 10.6683C39.1922 11.6773 39.05 12.7921 39.05 14.0024H41.05C41.05 12.946 41.1744 12.0275 41.4088 11.2365L39.4912 10.6683ZM39.05 14.0024C39.05 15.2135 39.1924 16.341 39.4885 17.3771L41.4115 16.8277C41.1742 15.9972 41.05 15.0579 41.05 14.0024H39.05ZM39.498 17.4084C39.852 18.5098 40.4563 19.4298 41.3208 20.1296L42.5792 18.5751C42.0437 18.1417 41.648 17.5617 41.402 16.7964L39.498 17.4084ZM41.3618 20.1611C42.3258 20.8622 43.577 21.1524 45 21.1524V19.1524C43.823 19.1524 43.0408 18.9092 42.5382 18.5437L41.3618 20.1611Z" fill="black" mask="url(#path-2-outside-1_60_153)"/>
</svg>
